<svg width="188" height="36" viewBox="0 0 188 36" fill="none" xmlns="http://www.w3.org/2000/svg"><g clip-path="url(#clip0_21126_75932)"><path d="M51.9767 5.30235C51.832 3.6207 51.0435 2.20607 49.6323 1.09823C48.4973 0.208168 47.0689 -0.14975 45.4996 0.0604558C42.2754 0.494124 38.1294 3.41996 33.1778 8.75655C29.6526 12.5535 26.9711 16.2274 26.8607 16.3808L25.2247 18.5415L24.162 19.8691C22.1262 22.4105 20.2046 24.8117 18.8029 26.4915L18.7667 26.535C14.634 31.4872 12.4743 33.6802 10.5204 32.3792C9.89761 31.9644 9.61385 30.1805 10.8556 26.518C11.8459 23.5978 13.3047 20.9504 13.3199 20.9239L13.5504 20.5072C13.758 20.1323 13.6875 19.6683 13.3809 19.3691L13.0285 19.0244C12.8686 18.8673 9.0806 15.1764 7.92078 13.9075C3.93093 9.54056 3.2358 6.96317 3.35578 5.56747C3.42434 4.77399 3.78048 4.14906 4.47751 3.59987C4.89078 3.27604 5.38594 3.1662 6.03917 3.25331C10.6518 3.87257 18.182 12.5459 21.7738 17.3788C21.8005 17.4148 22.8461 18.7177 22.8727 18.7536L24.9657 16.0967C24.9524 16.0797 23.9278 14.7787 23.9145 14.7597C22.888 13.4227 21.2558 11.3737 18.8219 8.75276C13.8703 3.41807 9.72431 0.49223 6.50005 0.058562C4.93268 -0.151644 3.50242 0.206274 2.36927 1.09634C0.956157 2.20607 0.167709 3.6207 0.0229697 5.30235C-0.228419 8.23955 1.58463 11.8528 5.4145 16.0399C6.31341 17.0228 8.51497 19.1968 9.81381 20.4694C9.20439 21.6852 8.36261 23.5051 7.69034 25.4746C6.04488 30.3074 6.35721 33.523 8.62352 35.0304C9.5948 35.6762 10.6042 36 11.6421 36C12.9486 36 14.3064 35.4887 15.7005 34.468C17.5859 33.0874 19.4237 30.885 21.3682 28.5538L21.4044 28.5102C22.8442 26.785 24.7886 24.3572 26.8454 21.7855L27.8834 20.4902L29.5669 18.2669L29.586 18.2423C32.4484 14.2995 40.9708 3.9237 45.9605 3.25142C46.6119 3.16241 47.1089 3.27415 47.5222 3.59798C48.2192 4.14527 48.5773 4.77021 48.6439 5.56369C48.7639 6.95749 48.0688 9.53677 44.0789 13.9C42.9191 15.1688 39.1311 18.8597 38.9673 19.0207L38.6169 19.3615C38.3103 19.6607 38.2417 20.1247 38.4474 20.4997L38.6779 20.9182C38.6931 20.9447 40.1519 23.5941 41.1422 26.5123C42.3858 30.1767 42.1002 31.9606 41.4774 32.3735C39.5272 33.6745 37.3657 31.4815 33.233 26.5294L33.1968 26.4858C32.6788 25.8647 31.1819 24.0183 30.3116 22.9445C30.2754 22.8991 29.2127 21.4863 29.1784 21.4447L27.0854 24.1016C27.1216 24.1451 28.1881 25.5579 28.2262 25.6052C28.9384 26.4858 30.0735 27.8853 30.5953 28.5102L30.6315 28.5538C32.5779 30.8869 34.4157 33.0893 36.2992 34.468C38.7845 36.2878 41.2032 36.4772 43.3762 35.0304C45.6406 33.523 45.9548 30.3074 44.3094 25.4746C43.6066 23.4123 42.702 21.4977 42.1859 20.4694C43.4847 19.1968 45.6863 17.0228 46.5852 16.0399C50.4151 11.8528 52.23 8.23955 51.9767 5.30235Z" fill="#E25352"></path><path d="M69.0332 16.7526H66.7737V26.7248H63.4667V16.7526H62V14.1402H63.4667V13.5041C63.4667 11.96 63.9159 10.8237 64.8163 10.097C65.7167 9.37024 67.0757 9.03047 68.8916 9.07577V11.7562C68.1007 11.7411 67.5476 11.8694 67.2381 12.1431C66.9266 12.4149 66.7718 12.9076 66.7718 13.6192V14.1421H69.0313V16.7526H69.0332Z" fill="#E25352"></path><path d="M70.8421 17.0015C71.3612 16.018 72.0691 15.2611 72.9619 14.7307C73.8547 14.2003 74.8514 13.936 75.9537 13.936C76.9164 13.936 77.7583 14.1267 78.4793 14.5042C79.2023 14.8817 79.7799 15.3593 80.214 15.935V14.1418H83.4965V26.7245H80.214V24.8841C79.795 25.4749 79.2174 25.9638 78.4793 26.3488C77.7413 26.7339 76.8919 26.9283 75.9292 26.9283C74.8419 26.9283 73.8528 26.6565 72.96 26.111C72.0672 25.5655 71.3612 24.7972 70.8402 23.8062C70.3193 22.8153 70.0607 21.6752 70.0607 20.3878C70.0626 19.1137 70.3212 17.9868 70.8421 17.0015ZM79.7497 18.4436C79.4382 17.8905 79.0192 17.4658 78.4925 17.1714C77.964 16.8769 77.3977 16.7278 76.7918 16.7278C76.1859 16.7278 75.6272 16.8712 75.1156 17.1582C74.6041 17.447 74.1869 17.866 73.8698 18.4191C73.5508 18.9721 73.3923 19.6271 73.3923 20.384C73.3923 21.141 73.5508 21.8035 73.8698 22.3717C74.1888 22.9398 74.6079 23.3759 75.127 23.6779C75.646 23.9799 76.201 24.1328 76.7918 24.1328C77.3977 24.1328 77.964 23.9856 78.4925 23.6892C79.0211 23.3948 79.4382 22.97 79.7497 22.417C80.0592 21.8639 80.2159 21.2014 80.2159 20.4293C80.214 19.6592 80.0592 18.9967 79.7497 18.4436Z" fill="#E25352"></path><path d="M90.0537 16.7524V22.8399C90.0537 23.2646 90.1575 23.5704 90.3689 23.7591C90.5784 23.9479 90.9314 24.0442 91.4279 24.0442H92.9417V26.7246H90.8918C88.1435 26.7246 86.7693 25.4221 86.7693 22.8172V16.7524H85.2328V14.14H86.7693V11.0273H90.0518V14.14H92.9398V16.7524H90.0537Z" fill="#E25352"></path><path d="M95.2351 17.0015C95.7542 16.018 96.462 15.2611 97.3548 14.7307C98.2477 14.2003 99.2443 13.936 100.347 13.936C101.309 13.936 102.151 14.1267 102.872 14.5042C103.595 14.8817 104.173 15.3593 104.607 15.935V14.1418H107.889V26.7245H104.607V24.8841C104.188 25.4749 103.61 25.9638 102.872 26.3488C102.134 26.7358 101.285 26.9283 100.322 26.9283C99.2349 26.9283 98.2458 26.6565 97.353 26.111C96.4601 25.5655 95.7542 24.7972 95.2332 23.8062C94.7122 22.8153 94.4536 21.6752 94.4536 20.3878C94.4555 19.1137 94.7141 17.9868 95.2351 17.0015ZM104.143 18.4436C103.831 17.8905 103.412 17.4658 102.885 17.1714C102.357 16.8769 101.791 16.7278 101.185 16.7278C100.579 16.7278 100.02 16.8712 99.5086 17.1582C98.997 17.447 98.5799 17.866 98.2628 18.4191C97.9438 18.9721 97.7852 19.6271 97.7852 20.384C97.7852 21.141 97.9438 21.8035 98.2628 22.3717C98.5818 22.9398 99.0008 23.3759 99.5199 23.6779C100.039 23.9799 100.594 24.1328 101.185 24.1328C101.791 24.1328 102.357 23.9856 102.885 23.6892C103.414 23.3948 103.831 22.97 104.143 22.417C104.452 21.8639 104.609 21.2014 104.609 20.4293C104.607 19.6592 104.452 18.9967 104.143 18.4436Z" fill="#E25352"></path><path d="M114.341 9.91602V26.725H111.081V9.91602H114.341Z" fill="#E25352"></path><path d="M135.74 14.6515C136.516 15.0535 137.13 15.6557 137.581 16.4579C138.032 17.2601 138.256 18.2379 138.256 19.3874V26.7245H136.161V19.6838C136.161 18.4417 135.846 17.4923 135.217 16.8335C134.589 16.1747 133.739 15.8463 132.667 15.8463C131.565 15.8463 130.687 16.1917 130.036 16.8807C129.385 17.5697 129.058 18.5644 129.058 19.8669V26.7264H126.963V19.6857C126.963 18.4436 126.65 17.4942 126.019 16.8354C125.391 16.1766 124.541 15.8482 123.469 15.8482C122.367 15.8482 121.489 16.1936 120.838 16.8826C120.187 17.5716 119.86 18.5663 119.86 19.8688V26.7283H117.74V14.2758H119.86V16.0709C120.279 15.4197 120.842 14.9195 121.548 14.5722C122.253 14.2249 123.033 14.0493 123.888 14.0493C124.96 14.0493 125.906 14.2834 126.729 14.7534C127.552 15.2234 128.165 15.9124 128.569 16.8203C128.926 15.9426 129.517 15.2612 130.34 14.776C131.163 14.2928 132.078 14.0493 133.088 14.0493C134.079 14.0493 134.965 14.2494 135.74 14.6515Z" fill="#E25352"></path><path d="M143.478 26.1321C142.507 25.6017 141.747 24.8485 141.196 23.8726C140.644 22.8968 140.369 21.7642 140.369 20.4769C140.369 19.2046 140.652 18.0796 141.218 17.1037C141.784 16.1279 142.556 15.3785 143.536 14.8556C144.514 14.3328 145.609 14.0723 146.819 14.0723C148.031 14.0723 149.123 14.3328 150.101 14.8556C151.079 15.3785 151.851 16.1241 152.419 17.0924C152.985 18.0607 153.269 19.1895 153.269 20.4769C153.269 21.7642 152.98 22.8968 152.396 23.8726C151.815 24.8504 151.026 25.6036 150.033 26.1321C149.04 26.6625 147.938 26.9268 146.726 26.9268C145.531 26.9286 144.448 26.6625 143.478 26.1321ZM148.869 24.588C149.537 24.2407 150.075 23.7179 150.486 23.0213C150.898 22.3248 151.104 21.4773 151.104 20.4769C151.104 19.4783 150.902 18.6289 150.498 17.9324C150.094 17.2359 149.567 16.7168 148.914 16.377C148.263 16.0372 147.555 15.8655 146.794 15.8655C146.018 15.8655 145.307 16.0354 144.663 16.377C144.019 16.7187 143.502 17.2359 143.115 17.9324C142.726 18.6289 142.534 19.4764 142.534 20.4769C142.534 21.4905 142.724 22.3475 143.104 23.044C143.483 23.7405 143.993 24.2596 144.629 24.5994C145.265 24.941 145.964 25.1109 146.724 25.1109C147.487 25.1109 148.2 24.9372 148.869 24.588Z" fill="#E25352"></path><path d="M156.175 17.1034C156.704 16.1426 157.429 15.397 158.352 14.8666C159.275 14.3362 160.311 14.0719 161.461 14.0719C162.454 14.0719 163.379 14.2947 164.232 14.742C165.085 15.1894 165.738 15.7745 166.187 16.5013V9.91357H168.33V26.7226H166.187V24.382C165.768 25.1238 165.147 25.7335 164.324 26.211C163.501 26.6886 162.539 26.9264 161.436 26.9264C160.304 26.9264 159.275 26.6546 158.35 26.1091C157.427 25.5636 156.7 24.7991 156.174 23.8157C155.645 22.8322 155.383 21.711 155.383 20.4539C155.383 19.1816 155.647 18.0661 156.175 17.1034ZM165.606 18.0246C165.217 17.328 164.694 16.7938 164.034 16.4239C163.373 16.052 162.648 15.867 161.857 15.867C161.066 15.867 160.343 16.0482 159.692 16.4125C159.041 16.7769 158.52 17.3054 158.131 18.0038C157.742 18.7003 157.55 19.5176 157.55 20.4558C157.55 21.4109 157.744 22.2395 158.131 22.9436C158.518 23.6477 159.039 24.1856 159.692 24.5556C160.343 24.9275 161.066 25.1125 161.857 25.1125C162.648 25.1125 163.375 24.9275 164.034 24.5556C164.692 24.1838 165.217 23.6477 165.606 22.9436C165.993 22.2395 166.187 21.4184 166.187 20.4784C166.187 19.5384 165.995 18.7211 165.606 18.0246Z" fill="#E25352"></path><path d="M182.763 21.2715H172.564C172.641 22.4985 173.072 23.4555 173.857 24.1445C174.64 24.8334 175.592 25.1789 176.709 25.1789C177.625 25.1789 178.389 24.9712 179.002 24.5541C179.616 24.1369 180.046 23.582 180.295 22.8835H182.578C182.236 24.0803 181.553 25.0524 180.528 25.8018C179.503 26.5511 178.23 26.9268 176.709 26.9268C175.497 26.9268 174.416 26.6625 173.46 26.1321C172.505 25.6017 171.756 24.8485 171.214 23.8726C170.671 22.8968 170.399 21.7642 170.399 20.4769C170.399 19.1895 170.663 18.0607 171.19 17.0924C171.718 16.1241 172.458 15.3785 173.413 14.8556C174.368 14.3328 175.467 14.0723 176.709 14.0723C177.919 14.0723 178.991 14.3309 179.922 14.8443C180.852 15.3596 181.571 16.0674 182.075 16.9678C182.579 17.8682 182.832 18.8875 182.832 20.0238C182.832 20.4165 182.81 20.8336 182.763 21.2715ZM180.109 17.5586C179.752 16.9905 179.267 16.5601 178.653 16.2638C178.04 15.9693 177.36 15.8202 176.617 15.8202C175.544 15.8202 174.633 16.1524 173.88 16.8187C173.126 17.485 172.696 18.4081 172.587 19.5897H180.643C180.643 18.8045 180.465 18.1268 180.109 17.5586Z" fill="#E25352"></path><path d="M187.019 9.91602V26.725H184.9V9.91602H187.019Z" fill="#E25352"></path></g><defs><clipPath id="clip0_21126_75932"><rect width="187.019" height="36" fill="white"></rect></clipPath></defs></svg>